# xmcd CD database file
#
# Track frame offsets:
#	150
#	22000
#	48142
#	65715
#	80201
#	100611
#	121682
#	143247
#	162144
#	182893
#
# Disc length: 2722 seconds
#
# Revision: 0
# Processed by: cddbd v1.5.2PL0 Copyright (c) Steve Scherf et al.
# Submitted via: CDex 1.70beta2
#
DISCID=820aa00a
DTITLE=Ray Seales - Cool Dive
DYEAR=2002
DGENRE=Jazz
TTITLE0=Surely
TTITLE1=Cool Dive
TTITLE2=Lovely Guyana
TTITLE3=Sohani Raat
TTITLE4=Happy Holiday
TTITLE5=Patsy Girl
TTITLE6=Bamboo Fire
TTITLE7=Juanita
TTITLE8=Mash Jam
TTITLE9=Mash Jam (Instrumental)
EXTD=YEAR: 2002
EXTT0=
EXTT1=
EXTT2=
EXTT3=
EXTT4=
EXTT5=
EXTT6=
EXTT7=
EXTT8=
EXTT9=
PLAYORDER=
